<svg xmlns="http://www.w3.org/2000/svg" width="256" height="42" viewBox="0 0 256 42">
  <path fill="#00c3fc" d="M29.45,40.65l-14.8-17.6,14.4-17.3H20.6L7.9,21.4V5.75h-7v34.9h7V25.1L20.6,40.65h8.85Zm8.15-31a4.266,4.266,0,0,0,3.075-1.175A3.887,3.887,0,0,0,41.9,5.55a3.889,3.889,0,0,0-1.225-2.925,4.611,4.611,0,0,0-6.15,0A3.887,3.887,0,0,0,33.3,5.55a3.884,3.884,0,0,0,1.225,2.925A4.263,4.263,0,0,0,37.6,9.65h0Zm-3.55,3.3v27.7h7V12.95h-7ZM60.25,41.1a15.119,15.119,0,0,0,7.325-1.775,13.328,13.328,0,0,0,5.2-5.025A14.44,14.44,0,0,0,74.7,26.8a14.74,14.74,0,0,0-1.875-7.5A13.035,13.035,0,0,0,67.7,14.275a15.694,15.694,0,0,0-14.5,0A13.031,13.031,0,0,0,48.075,19.3,14.74,14.74,0,0,0,46.2,26.8a15.051,15.051,0,0,0,1.825,7.5,12.772,12.772,0,0,0,5.025,5.025,14.585,14.585,0,0,0,7.2,1.775h0Zm0-6.1a6.5,6.5,0,0,1-4.975-2.125A8.6,8.6,0,0,1,53.3,26.8a8.466,8.466,0,0,1,2.025-6.075A6.661,6.661,0,0,1,60.35,18.6a6.823,6.823,0,0,1,5.075,2.125A8.342,8.342,0,0,1,67.5,26.8a9.35,9.35,0,0,1-1,4.5,6.723,6.723,0,0,1-2.675,2.775A7.278,7.278,0,0,1,60.25,35h0Z"/>
  <path fill="#000" class="cls-2" d="M87.675,16.6V3.25h-7v37h7V36.3A10.53,10.53,0,0,0,91.4,39.475,11.476,11.476,0,0,0,96.825,40.7a11.861,11.861,0,0,0,6.425-1.8,12.6,12.6,0,0,0,4.55-5.075,16.292,16.292,0,0,0,1.675-7.525,15.99,15.99,0,0,0-1.675-7.475,12.316,12.316,0,0,0-4.55-4.975,12.117,12.117,0,0,0-6.425-1.75A11.477,11.477,0,0,0,91.4,13.35a10.014,10.014,0,0,0-3.725,3.25h0Zm14.65,9.7a8.946,8.946,0,0,1-1.025,4.4,7.419,7.419,0,0,1-2.7,2.85,7.056,7.056,0,0,1-7.2.025,7.227,7.227,0,0,1-2.7-2.825,8.829,8.829,0,0,1-1.025-4.35A8.834,8.834,0,0,1,88.7,22.05a7.233,7.233,0,0,1,2.7-2.825,6.989,6.989,0,0,1,3.575-.975,7.232,7.232,0,0,1,3.625.95,7.1,7.1,0,0,1,2.7,2.775,8.7,8.7,0,0,1,1.025,4.325h0Zm24.55,14.4a15.117,15.117,0,0,0,7.325-1.775,13.323,13.323,0,0,0,5.2-5.025,14.438,14.438,0,0,0,1.925-7.5,14.74,14.74,0,0,0-1.875-7.5,13.031,13.031,0,0,0-5.125-5.025,15.694,15.694,0,0,0-14.5,0A13.031,13.031,0,0,0,114.7,18.9a14.74,14.74,0,0,0-1.875,7.5,15.052,15.052,0,0,0,1.825,7.5,12.779,12.779,0,0,0,5.025,5.025,14.586,14.586,0,0,0,7.2,1.775h0Zm0-6.1a6.5,6.5,0,0,1-4.975-2.125,8.6,8.6,0,0,1-1.975-6.075,8.466,8.466,0,0,1,2.025-6.075,6.661,6.661,0,0,1,5.025-2.125,6.821,6.821,0,0,1,5.075,2.125,8.341,8.341,0,0,1,2.075,6.075,9.345,9.345,0,0,1-1,4.5,6.719,6.719,0,0,1-2.675,2.775,7.276,7.276,0,0,1-3.575.925h0Zm17.8-8.3a16.292,16.292,0,0,0,1.675,7.525A12.6,12.6,0,0,0,150.9,38.9a11.773,11.773,0,0,0,6.375,1.8,11.4,11.4,0,0,0,5.475-1.275,10.415,10.415,0,0,0,3.725-3.225v4.05h7.05V12.55h-7.05V16.5a11.011,11.011,0,0,0-3.725-3.15,11.291,11.291,0,0,0-5.425-1.25,12.116,12.116,0,0,0-6.425,1.75,12.282,12.282,0,0,0-4.55,5,16.029,16.029,0,0,0-1.675,7.45h0Zm21.8,0.1a8.974,8.974,0,0,1-1,4.375,7.052,7.052,0,0,1-2.7,2.8,7.215,7.215,0,0,1-3.65.975,6.854,6.854,0,0,1-3.575-1,7.373,7.373,0,0,1-2.7-2.875,8.982,8.982,0,0,1-1.025-4.375,8.7,8.7,0,0,1,1.025-4.325,7.2,7.2,0,0,1,9.925-2.75,7.057,7.057,0,0,1,2.7,2.8,8.976,8.976,0,0,1,1,4.375h0Zm20.9-9.55v-4.3h-7v27.7h7V26.45q0-3.85,1.675-5.4a7.094,7.094,0,0,1,4.975-1.55h1.85V12.15a9.631,9.631,0,0,0-8.5,4.7h0Zm11.4,9.45a16.292,16.292,0,0,0,1.675,7.525,12.538,12.538,0,0,0,4.575,5.075,11.9,11.9,0,0,0,6.4,1.8,11.44,11.44,0,0,0,5.45-1.25,9.478,9.478,0,0,0,3.65-3.3v4.1h7.1v-37h-7.1V16.4a10.3,10.3,0,0,0-3.9-3.125,11.771,11.771,0,0,0-5.15-1.175,12.076,12.076,0,0,0-11.025,6.75,16.029,16.029,0,0,0-1.675,7.45h0Zm21.8,0.1a8.974,8.974,0,0,1-1,4.375,7.052,7.052,0,0,1-2.7,2.8,7.215,7.215,0,0,1-3.65.975,6.854,6.854,0,0,1-3.575-1,7.373,7.373,0,0,1-2.7-2.875,8.982,8.982,0,0,1-1.025-4.375,8.7,8.7,0,0,1,1.025-4.325,7.2,7.2,0,0,1,9.925-2.75,7.057,7.057,0,0,1,2.7,2.8,8.976,8.976,0,0,1,1,4.375h0Z"/>
  <path fill="#dff20b" d="M234.564,36.316V7.36a5,5,0,0,1,5-5h10.068a5,5,0,0,1,5,5V36.316a5,5,0,0,1-5,5H239.564A5,5,0,0,1,234.564,36.316Z"/>
  <path fill="#000000" d="M242.444,26.058a3.74,3.74,0,0,0-1.915.492,3.367,3.367,0,0,0-1.328,1.475,5.359,5.359,0,0,0-.483,2.381v4.434H250.76V32.424h-4.624V30.405a5.21,5.21,0,0,0-.517-2.458,3.363,3.363,0,0,0-1.363-1.432,3.753,3.753,0,0,0-1.812-.457h0Zm1.743,4.451v1.915h-3.5V30.509q0-1.967,1.759-1.967a1.687,1.687,0,0,1,1.286.483,2.1,2.1,0,0,1,.457,1.484h0Zm-1.5-8.574H241.2V24.35h9.558V21.935H246a2.466,2.466,0,0,1-1.863-.578,2.449,2.449,0,0,1-.535-1.716V19h-2.536a3.321,3.321,0,0,0,1.622,2.933h0Zm8.229-8.8a5.22,5.22,0,0,0-.612-2.527,4.6,4.6,0,0,0-1.734-1.794,4.984,4.984,0,0,0-2.588-.664,5.088,5.088,0,0,0-2.588.647,4.505,4.505,0,0,0-1.734,1.768,5.136,5.136,0,0,0-.612,2.5,5.135,5.135,0,0,0,.612,2.5,4.5,4.5,0,0,0,1.734,1.768,5.088,5.088,0,0,0,2.588.647,5.194,5.194,0,0,0,2.588-.63A4.4,4.4,0,0,0,250.3,15.62a5.036,5.036,0,0,0,.612-2.484h0Zm-2.1,0a2.243,2.243,0,0,1-.733,1.717,2.965,2.965,0,0,1-2.1.681,2.922,2.922,0,0,1-2.1-.7,2.3,2.3,0,0,1-.733-1.734,2.353,2.353,0,0,1,.733-1.751,2.879,2.879,0,0,1,2.1-.716,3.228,3.228,0,0,1,1.553.345,2.319,2.319,0,0,1,.957.923,2.51,2.51,0,0,1,.319,1.233h0Z"/>
</svg>
